<svg id="Layer_1" data-name="Layer 1" xmlns="http://www.w3.org/2000/svg" viewBox="0 0 627.62 809.88"><defs><style>.cls-1,.cls-2{fill:none;stroke:#4e342e;stroke-miterlimit:10;}.cls-2{stroke-linecap:round;}.cls-3{fill:#bdbdbd;}.cls-4{fill:#4e342e;}.cls-5{fill:#ffb74d;}.cls-6{fill:#e64a19;}.cls-7{fill:#4a148c;}.cls-8{fill:#880e4f;}.cls-9{fill:#ad1457;}.cls-10{fill:#6a1b9a;}.cls-11{fill:#ec407a;}.cls-12{fill:#8e24aa;}.cls-13{fill:#d81b60;}.cls-14{fill:#7b1fa2;}.cls-15{fill:#c2185b;}</style></defs><title>balloon-1-night</title><g id="basket_2" data-name="basket 2"><polygon class="cls-1" points="233.22 613.58 289.5 724.01 258.73 613.58 233.22 613.58"/><polygon class="cls-2" points="394.15 613.58 338.46 725.18 368.9 613.58 394.15 613.58"/><path class="cls-3" d="M728.43,869.62s.23-22.38-.11-25.24-1.36-7.89-4.4-10.32a13.65,13.65,0,0,0-7.84-3.38c-2.78-.35-14.87-1-14.87-1s-12.18.72-15,1.06a13.92,13.92,0,0,0-7.92,3.4c-3,2.43-4,7.5-4.4,10.36s-.11,25.16-.11,25.16L673.4,878h4.86l.23-20.76s0-12.78.82-16.25,6.49-5.67,8.84-6.11,13-1,13-1,10.59.6,12.93,1,8,2.68,8.79,6.15.8,16.17.8,16.17L724,878h4.86Z" transform="translate(-387.3 -115.93)"/><path class="cls-4" d="M709.55,824.42c-.58-1-3-.42-3-.42H695.67s-2.37-.56-3,.42.35,6.29.81,9.36a68,68,0,0,0,3.35,11.17c.7,2,1.68,6.11,1.86,6.35s.79,4.7,1.31,4.7h2.26c.52,0,.86-3.44,1.21-4.91s1.22-4.28,1.92-6.31,2.51-5.23,3.35-10C709.2,831.74,710.13,825.41,709.55,824.42Z" transform="translate(-387.3 -115.93)"/><path class="cls-4" d="M701.75,911H667v4.58s.1,6.64,2.71,8.87c2.08,1.7,32,1.32,32,1.32s29.23.38,31.31-1.32c2.14-2.14,2-8.87,2-8.87V911Z" transform="translate(-387.3 -115.93)"/><path class="cls-5" d="M722.78,873.83c-2.78.54-3.52,3.7-3.9,4.71s-.64,5.25-1.87,12.19c-.87,6.17-6.18,5.91-6.18,5.91H692.51s-5.42.26-6.29-5.91c-1.23-6.94-1.67-11.19-2-12.19s-1.48-4.17-4.26-4.71-12.9,0-12.9,0v40c0,1.18,2.7,8.12,4,8.12H732.4c1.26,0,2.6-6.94,2.6-8.12v-40S725.56,873.29,722.78,873.83Z" transform="translate(-387.3 -115.93)"/><path class="cls-4" d="M722.77,876.3c-2.78.54-2.82,11.92-4.06,18.86-1,6.06-4.6,7.84-7.24,7.84H691.88c-3.87,0-6.4-1.78-7.41-7.84-1.23-6.94-1.79-17.83-4.57-18.37s-12.9-.49-12.9-.49v40c0,1.18,1,5.65,4,5.65h61.4c2.1,0,2.6-4.47,2.6-5.65v-40S725.55,875.76,722.77,876.3Z" transform="translate(-387.3 -115.93)"/><polygon class="cls-6" points="314.45 793.08 279.7 793.08 279.7 801.08 314.45 801.08 347.7 801.08 347.7 793.08 314.45 793.08"/></g><g id="balloon_dark" data-name="balloon dark"><path class="cls-7" d="M699,127.06l-159.25,9.56a60.75,60.75,0,0,0-20.08.87c-15.59,3.27-25.61,11.76-34.6,19.61-25.33,22.11-37.85,33.17-49.84,48.94-11.67,15.36-34.15,45.7-43.66,91.63-6.37,30.77-4.09,55.19-2.74,68.72,2.38,23.81,8.63,51.65,25.7,88.85,20.37,44.39,41.23,69.55,88.86,129.81,18.94,24,49.56,62.88,88.1,112.84a5.5,5.5,0,0,1,2.2-1.57c3.25-1.23,6.4,1.39,6.57,1.54,0-3.19-1.13-6.38-1.14-9.58,33.67-1,69.89-2,99.89-3Z" transform="translate(-387.3 -115.93)"/><path class="cls-8" d="M699,127.06c-79,4.24-116.48,3.88-133.51,1.94a55.15,55.15,0,0,0-18.4.68c-13.75,2.81-22.15,10.08-36.51,22C494.65,165,483.81,178,473.4,190.3c-4.86,5.76-8.27,10.19-9.33,11.56-8,10.32-15,19.28-22.49,32.44a216.65,216.65,0,0,0-21.5,53.63,229.38,229.38,0,0,0-6.24,39.57,239.4,239.4,0,0,0,.7,41,238.89,238.89,0,0,0,6.16,37.86c6.29,24.88,15.74,42.27,25.54,60,5.12,9.27,13.89,22.59,31.44,49.23,7.33,11.12,14.89,22.58,25.3,37.75,3.2,4.65,9.55,13.87,34.16,48.34,21.1,29.56,25,34.87,28.29,39.63l2.28,3.38c7.25,10.81,18.17,27.88,32.54,53.19a8.24,8.24,0,0,1,3.14-2.25c3.82-1.51,8.06.46,10.37,1.54.6.28,1.09.54,1.39.71-.12-5-1.35-10-1.47-14.94,28.81-.67,61.33-1.34,85.33-2Z" transform="translate(-387.3 -115.93)"/><path class="cls-7" d="M699,125.87c-30-.36-62.18-.71-93.83-1.07a68,68,0,0,0-22.51,0c-14.13,2.35-25.3,8.79-38.93,19.8-12.89,10.41-28.62,25.73-49,55.17-16,23.1-25.79,37.24-34.64,59.7A225.09,225.09,0,0,0,444.37,340c-.24,35.6,8.22,62,13.42,77.75,8.54,25.91,18.5,43,38.42,77.28,9.84,16.92,7.29,11.06,40.73,65.25,14,22.72,17.35,29.63,29.16,48.13,4.09,6.41,9.78,15.19,17.59,28.23,5,8.28,9.34,15.61,14.35,25,4.65,8.71,10.77,20.94,17.12,36.23a11.9,11.9,0,0,1,4.39-2.52c2.87-.89,5.32-.39,8.13.2a29.44,29.44,0,0,1,7,2.39l-1.5-22c22.33-.57,49.88-1.15,65.88-1.72Z" transform="translate(-387.3 -115.93)"/><path class="cls-9" d="M699,122.1c-16-.64-26.82-1.27-40.79-1.91a85.82,85.82,0,0,0-30.66-.47c-18.86,3.11-31.3,11.6-39.06,16.89-24,16.39-36.32,37.66-47.41,56.23-7.36,12.33-15.77,29.59-17.73,33.64-1.66,3.4-3.34,7.06-5.28,11.59-2.72,6.34-5.32,13.21-7.75,20.72A249.76,249.76,0,0,0,498.52,322c-1.88,34.23,3.89,60,8.33,79.13,7.2,31.08,16.73,52.76,34.71,93.71,12.78,29.09,26.85,57.83,28.46,61.08,3.87,7.8,10.72,21.42,17.35,34.48C599,613.32,600.58,615.93,605.88,627s11,22.9,17.27,38.76c5.19,13.1,8.94,24.24,11.47,32.24a10.82,10.82,0,0,1,3.89-3.21,11.84,11.84,0,0,1,5.33-1,20.9,20.9,0,0,1,7.4,1.4,34.89,34.89,0,0,1,6.48,2.89l1.39-29.62L674,668c7.89-.16,15-.37,25-.52Z" transform="translate(-387.3 -115.93)"/><path class="cls-10" d="M699,119.21c-2-1.72-12.11-3.75-22-3.19-16.36.93-27.25,8.35-32.76,12-20.35,13.58-29.27,34.76-41.38,63.59a356.21,356.21,0,0,0-25.64,96.09,404.64,404.64,0,0,0-2.51,41.86,431.87,431.87,0,0,0,3.07,54.07c.77,6.51,3,24.57,11.13,59.9,5,21.68,9.91,40.27,18.06,68.68,18.88,65.88,20,62.57,30.42,102,0,0,2.09,7.87,20.36,83.76A32,32,0,0,1,672,692.28c4.3-.55,6.51,0,10.88.69,4.2.69,14.07,2,16.07,5Z" transform="translate(-387.3 -115.93)"/><path class="cls-11" d="M699,127.06l161.41,9.56a67.28,67.28,0,0,1,21.16.87c15.59,3.27,26.15,11.76,35.14,19.61,25.29,22.1,38.13,33.16,50.11,48.9,11.67,15.36,34.29,45.7,43.8,91.63,6.37,30.77,4.16,55.19,2.81,68.72-2.38,23.81-8.6,51.65-25.67,88.85-20.37,44.39-41.21,69.55-88.84,129.81-18.94,24-49.55,62.88-88.09,112.84a5.48,5.48,0,0,0-2.2-1.57c-3.25-1.23-6.39,1.39-6.57,1.54,0-3.19-1-6.38-1-9.58-33.67-1-64-2-102-3Z" transform="translate(-387.3 -115.93)"/><path class="cls-12" d="M699,127.06c77,4.24,118.12,3.88,135.15,1.94a60.2,60.2,0,0,1,19.22.68c13.75,2.81,22.56,10.08,36.92,22,15.93,13.27,27,26.26,37.38,38.59,4.86,5.76,8.37,10.19,9.43,11.56,8,10.32,15,19.28,22.54,32.44a216.45,216.45,0,0,1,21.53,53.63,228.92,228.92,0,0,1,6.25,39.57,239.57,239.57,0,0,1-.69,41,238.8,238.8,0,0,1-6.16,37.86c-6.29,24.88-15.74,42.27-25.54,60-5.12,9.27-13.89,22.59-31.44,49.23-7.33,11.12-14.88,22.58-25.3,37.75-3.2,4.65-9.55,13.87-34.16,48.34-21.1,29.56-25,34.87-28.29,39.63l-2.28,3.38c-7.25,10.81-18.17,27.88-32.54,53.19a8.24,8.24,0,0,0-3.14-2.25c-3.82-1.51-8.06.46-10.37,1.54-.6.28-1.09.54-1.39.71.12-5-.29-10-.16-14.94-28.81-.67-54-1.34-87-2Z" transform="translate(-387.3 -115.93)"/><path class="cls-13" d="M699,125.87l95.47-1.07a73.11,73.11,0,0,1,23.33,0c14.13,2.35,25.71,8.79,39.34,19.8C870,155,886,170.34,906.38,199.78c16,23.1,25.89,37.24,34.74,59.7A225.48,225.48,0,0,1,956.86,340c.24,35.6-8.2,62-13.4,77.75C934.92,443.66,925,460.75,905,495c-9.84,16.92-7.29,11.06-40.72,65.25C850.31,583,847,589.9,835.18,608.4c-4.09,6.41-9.78,15.19-17.58,28.23-5,8.28-9.34,15.61-14.35,25-4.65,8.71-10.77,20.94-17.12,36.23a11.9,11.9,0,0,0-4.39-2.52c-2.87-.89-5.32-.39-8.13.2a29.44,29.44,0,0,0-7,2.39l-.14-22L699,674.21Z" transform="translate(-387.3 -115.93)"/><path class="cls-14" d="M699,122.1l42.43-1.91a90.57,90.57,0,0,1,31.48-.47c18.86,3.11,31.71,11.6,39.47,16.89,24,16.39,36.52,37.66,47.61,56.23,7.36,12.33,15.87,29.59,17.83,33.64,1.66,3.4,3.39,7.06,5.34,11.59,2.72,6.34,5.35,13.21,7.78,20.72A249.91,249.91,0,0,1,902.74,322c1.88,34.23-3.89,60-8.33,79.13-7.2,31.08-16.72,52.76-34.71,93.71-12.78,29.09-26.85,57.83-28.46,61.08-3.87,7.8-10.72,21.42-17.35,34.48-11.65,22.92-13.21,25.53-18.51,36.56s-11,22.9-17.27,38.76c-5.19,13.1-8.94,24.24-11.46,32.24a10.82,10.82,0,0,0-3.89-3.21,11.84,11.84,0,0,0-5.33-1,20.9,20.9,0,0,0-7.4,1.4,34.89,34.89,0,0,0-6.48,2.89l-1.39-29.62L725.6,668c-7.89-.16-20.6-.37-26.6-.52Z" transform="translate(-387.3 -115.93)"/><path class="cls-15" d="M699,119.21c0-1.72,13.75-3.75,23.66-3.19,16.36.93,28.07,8.35,33.58,12,20.35,13.58,29.68,34.76,41.79,63.59,18.13,43.16,23.8,78.88,25.84,96.09a393.35,393.35,0,0,1,2.61,41.86,428.24,428.24,0,0,1-3,54.07c-.77,6.51-3,24.57-11.1,59.9-5,21.68-9.9,40.27-18,68.68-18.88,65.88-20,62.57-30.41,102,0,0-2.09,7.87-20.36,83.76a32,32,0,0,0-14.33-5.67c-4.3-.55-8.14,0-12.52.69-4.2.69-11.71,2-17.71,5Z" transform="translate(-387.3 -115.93)"/><path class="cls-7" d="M701.22,698l-109.74-.08q7.92,10.89,15.92,22.64,6.32,9.31,12.15,18.39l81.68.45,82.17-.45c3.89-6,8.43-12.19,12.64-18.39,5.32-7.83,10.3-15.38,15.58-22.64Z" transform="translate(-387.3 -115.93)"/><path class="cls-14" d="M703.27,698.08,628,698q5.44,10.77,10.92,22.38,4.34,9.2,8.33,18.18l56,.44,56.36-.44c2.67-6,5.78-12,8.67-18.18,3.65-7.74,7.07-15.2,10.69-22.38Z" transform="translate(-387.3 -115.93)"/></g></svg>