<svg id="Layer_1" data-name="Layer 1" xmlns="http://www.w3.org/2000/svg" xmlns:xlink="http://www.w3.org/1999/xlink" viewBox="0 0 403.22 517.58"><defs><style>.cls-1{fill:none;stroke:#4e342e;stroke-miterlimit:10;}.cls-2{fill:#4e342e;}.cls-3{fill:#bdbdbd;}.cls-4{fill:#ec407a;}.cls-5{fill:#4a148c;}.cls-6{fill:#6a1b9a;}.cls-7{fill:#7b1fa2;}.cls-8{fill:#ab47bc;}.cls-9{fill:#8e24aa;}.cls-10{fill:url(#linear-gradient);}</style><linearGradient id="linear-gradient" x1="256.93" y1="364.2" x2="398.33" y2="364.2" gradientTransform="matrix(1, 0, 0, -1, 0, 1080)" gradientUnits="userSpaceOnUse"><stop offset="0" stop-color="#4a148c"/><stop offset="1" stop-color="#ab47bc"/></linearGradient></defs><title>balloon-2-night</title><g id="basket_1" data-name="basket 1"><polygon class="cls-1" points="149.83 396.87 185.98 471.3 166.22 396.87 149.83 396.87"/><polygon class="cls-1" points="253.4 397.87 217.25 472.3 237.01 397.87 253.4 397.87"/><path class="cls-2" d="M327.43,840H303v3.38a2.44,2.44,0,0,0,1.62,2.61c1.51.5,22.94,0,22.94,0s21.81.5,23.31,0a3.32,3.32,0,0,0,2.12-2.61V840Z" transform="translate(-125.76 -328.63)"/><path class="cls-3" d="M344.91,813.21s.15-14.58-.07-16.42-.87-5.17-2.82-6.73a8.88,8.88,0,0,0-5-2.22c-1.78-.22-9.55-.7-9.55-.7s-7.82.45-9.61.67a8.93,8.93,0,0,0-5.09,2.18c-2,1.56-2.6,4.81-2.82,6.65s-.07,16.57-.07,16.57l-.24,5.79h3.12l.15-13.74s0-8.41.53-10.64,4.17-3.74,5.68-4,8.36-.7,8.36-.7,6.8.36,8.31.64,5.15,1.71,5.65,3.94.52,10.79.52,10.79L342,819h3.12Z" transform="translate(-125.76 -328.63)"/><path class="cls-2" d="M343.39,810.87c-2,.39-1.82,2.68-2.1,3.4s-.52,3.63-1.41,8.65c-.72,4.38-5.43,4.08-5.43,4.08H320.29s-4.63.29-5.35-4.08c-.89-5-1.06-8-1.34-8.73s.38-3-1.62-3.36-9,0-9,0v28.94a2.79,2.79,0,0,0,2.18,2.19h44.39c.91,0,3.43-1.34,3.43-2.19v-28.9S345.4,810.48,343.39,810.87Z" transform="translate(-125.76 -328.63)"/><polygon class="cls-4" points="201.67 503.37 177.24 503.37 177.24 509.37 201.67 509.37 227.24 509.37 227.24 503.37 201.67 503.37"/><path class="cls-2" d="M332.78,783.52c-.37-.63-1.9-.52-1.9-.52h-7s-1.52-.11-1.9.52.22,4.17.52,6.14a33.82,33.82,0,0,0,2.15,6.58,17.92,17.92,0,0,0,1.19,2.73c.11.15.48,1,.82,1h1.45c.33,0,.71-.89.82-1a11,11,0,0,0,1.19-2.45,35.64,35.64,0,0,0,2.15-6.7C332.56,787.84,333.15,784.16,332.78,783.52Z" transform="translate(-125.76 -328.63)"/></g><g id="Layer_11" data-name="Layer 11"><path class="cls-5" d="M327,335.75l-102.81,6.14a40.51,40.51,0,0,0-13.15.56c-10,2.1-16.58,7.55-22.36,12.6-16.27,14.21-24.38,21.31-32.08,31.44-7.5,9.87-22,29.36-28.08,58.87a139.86,139.86,0,0,0-1.78,44.15c1.53,15.3,5.54,33.18,16.5,57.08,13.09,28.52,26.49,44.68,57.08,83.39,12.17,15.4,31.83,40.4,56.6,72.49a3.53,3.53,0,0,1,1.41-1c2.08-.79,4.11.89,4.22,1,0-2-.23-4.1-.23-6.15,21.63-.65,43.67-1.31,64.67-2Z" transform="translate(-125.76 -328.63)"/><path class="cls-5" d="M327,335.75c-52,2.73-75.33,2.49-86.27,1.25a37,37,0,0,0-12.07.43c-8.83,1.8-14.35,6.47-23.58,14.16-10.23,8.52-17.26,16.87-23.95,24.79-3.12,3.7-5.34,6.55-6,7.43-5.17,6.63-9.65,12.39-14.46,20.84a139.12,139.12,0,0,0-13.82,34.46,147.22,147.22,0,0,0-4,25.42,176.75,176.75,0,0,0,4.4,50.63c4,16,10.11,27.15,16.41,38.56,3.29,6,8.93,14.51,20.2,31.63,4.71,7.15,9.56,14.51,16.26,24.25,2.05,3,6.14,8.91,21.94,31.06,13.55,19,16.08,22.4,18.18,25.46l1.46,2.17c4.66,6.94,11.67,17.91,20.91,34.17a5.29,5.29,0,0,1,2-1.44c2.46-1,5.18.3,6.66,1,.39.18.7.35.89.45-.08-3.2-.37-6.4-.45-9.6,18.51-.43,36.32-.86,55.32-1.29Z" transform="translate(-125.76 -328.63)"/><path class="cls-6" d="M327,335c-19-.23-40.45-.46-60.78-.69a45.24,45.24,0,0,0-14.71,0c-9.08,1.51-16.38,5.65-25.14,12.72-8.28,6.69-18.45,16.53-31.57,35.44-10.29,14.84-16.6,23.92-22.28,38.35a144.73,144.73,0,0,0-10.09,51.73c-.16,22.87,5.27,39.82,8.62,50,5.49,16.65,11.88,27.65,24.68,49.65,6.32,10.87,4.68,7.11,26.16,41.92,9,14.6,11.15,19,18.73,30.92,2.63,4.12,6.28,9.76,11.3,18.14,3.18,5.32,6,10,9.22,16,3,5.6,6.92,13.45,11,23.27a7.65,7.65,0,0,1,2.82-1.62,9.76,9.76,0,0,1,5.22.13,18.91,18.91,0,0,1,4.47,1.54l-.47-14.11L327,687.29Z" transform="translate(-125.76 -328.63)"/><path class="cls-6" d="M327,332.57c-8-.41-17.73-.82-26.7-1.23a56.57,56.57,0,0,0-20-.3c-12.12,2-20.24,7.45-25.22,10.85-15.42,10.53-23.39,24.19-30.52,36.12-4.73,7.92-10.16,19-11.42,21.61-1.06,2.19-2.16,4.53-3.41,7.45-1.75,4.07-3.43,8.49-5,13.31A160.51,160.51,0,0,0,197.21,461c-1.21,22,2.5,38.52,5.35,50.84,4.63,20,10.75,33.9,22.3,60.2,8.21,18.69,17.25,37.15,18.28,39.24,2.48,5,6.89,13.76,11.15,22.15,7.48,14.72,8.48,16.4,11.89,23.49s7.06,14.71,11.1,24.9c3.33,8.41,5.74,15.58,7.37,20.72a7,7,0,0,1,2.5-2.06,7.61,7.61,0,0,1,3.42-.68,13.43,13.43,0,0,1,4.75.9,22.42,22.42,0,0,1,4.16,1.86l.89-19,10.09-.21L327,683Z" transform="translate(-125.76 -328.63)"/><path class="cls-7" d="M327,330.71a37.41,37.41,0,0,0-14.65-2,41.54,41.54,0,0,0-21.3,7.73c-13.08,8.72-18.93,22.33-26.71,40.85A229.67,229.67,0,0,0,247.81,439a256.47,256.47,0,0,0-1.64,26.9,276.34,276.34,0,0,0,2,34.74c.49,4.18,2,15.79,7.14,38.48,3.18,13.93,6.37,25.87,11.6,44.12,12.13,42.32,12.83,40.2,19.54,65.5,0,0,1.34,5.06,13.08,53.81a20.59,20.59,0,0,1,9.21-3.64,23.34,23.34,0,0,1,7.49.44,41.72,41.72,0,0,1,10.82,3.2Z" transform="translate(-125.76 -328.63)"/><path class="cls-8" d="M327,335.75l103.2,6.14a41.69,41.69,0,0,1,13.35.56c10,2.1,16.67,7.55,22.45,12.6,16.27,14.21,24.43,21.31,32.13,31.44,7.5,9.87,22,29.36,28.11,58.87A140,140,0,0,1,528,489.5c-1.53,15.3-5.53,33.18-16.5,57.08-13.06,28.52-26.5,44.69-57,83.42-12.17,15.4-31.83,40.4-56.59,72.49a3.53,3.53,0,0,0-1.41-1c-2.08-.79-4.11.89-4.22,1,0-2-.16-4.1-.16-6.15l-65.06-2Z" transform="translate(-125.76 -328.63)"/><path class="cls-8" d="M327,335.75c52,2.73,75.39,2.49,86.33,1.25a37.12,37.12,0,0,1,12.1.43c8.83,1.8,14.37,6.47,23.6,14.16,10.23,8.52,17.26,16.87,24,24.79,3.12,3.7,5.34,6.55,6,7.43,5.17,6.63,9.65,12.39,14.46,20.84a139.12,139.12,0,0,1,13.82,34.46,147.21,147.21,0,0,1,4,25.42,176.75,176.75,0,0,1-4.4,50.63c-4,16-10.11,27.15-16.41,38.56-3.29,6-8.93,14.51-20.2,31.63-4.71,7.15-9.56,14.51-16.26,24.25-2,3-6.14,8.91-21.94,31.06-13.55,19-16.08,22.4-18.18,25.46l-1.46,2.17c-4.66,6.94-11.67,17.91-20.91,34.17a5.29,5.29,0,0,0-2-1.44c-2.46-1-5.18.3-6.66,1-.39.18-.7.35-.89.45.08-3.2.31-6.4.39-9.6-18.51-.43-37.37-.86-55.37-1.29Z" transform="translate(-125.76 -328.63)"/><path class="cls-9" d="M327,335l60.83-.69a45.41,45.41,0,0,1,14.74,0C411.65,335.82,419,340,427.72,347c8.28,6.69,18.46,16.53,31.58,35.44,10.29,14.84,16.6,23.92,22.29,38.35a144.74,144.74,0,0,1,10.09,51.73c.16,22.87-5.27,39.82-8.61,50-5.49,16.65-11.88,27.65-24.68,49.65-6.32,10.87-4.68,7.11-26.16,41.92-9,14.6-11.15,19-18.73,30.92-2.63,4.12-6.28,9.76-11.3,18.14-3.18,5.32-6,10-9.22,16-3,5.6-6.92,13.45-11,23.27a7.65,7.65,0,0,0-2.82-1.62,9.76,9.76,0,0,0-5.22.13,18.91,18.91,0,0,0-4.47,1.54l.41-14.11L327,687.29Z" transform="translate(-125.76 -328.63)"/><path class="cls-9" d="M327,332.57c10-.41,17.79-.82,26.76-1.23a56.73,56.73,0,0,1,20-.3c12.12,2,20.25,7.45,25.23,10.85,15.42,10.53,23.4,24.19,30.53,36.12,4.73,7.92,10.16,19,11.43,21.61,1.06,2.19,2.16,4.53,3.41,7.45,1.75,4.07,3.43,8.49,5,13.31A160.51,160.51,0,0,1,456.9,461c1.21,22-2.5,38.52-5.35,50.84-4.63,20-10.75,33.9-22.3,60.2C421,590.7,412,609.16,411,611.25c-2.48,5-6.89,13.76-11.15,22.15-7.48,14.72-8.48,16.4-11.89,23.49s-7.06,14.71-11.1,24.9c-3.33,8.41-5.74,15.58-7.37,20.72a7,7,0,0,0-2.5-2.06,7.61,7.61,0,0,0-3.42-.68,13.43,13.43,0,0,0-4.75.9,22.42,22.42,0,0,0-4.16,1.86l-.89-19-10.14-.21c-5.07-.1-13.59-.24-16.59-.34Z" transform="translate(-125.76 -328.63)"/><path class="cls-7" d="M327,330.71c2-1.11,8.33-2.41,14.7-2a41.65,41.65,0,0,1,21.3,7.68c13.08,8.72,18.94,22.33,26.72,40.85A229.76,229.76,0,0,1,406.29,439a256.1,256.1,0,0,1,1.64,26.9,276.23,276.23,0,0,1-2,34.74c-.49,4.18-2,15.79-7.14,38.48-3.18,13.93-6.36,25.87-11.6,44.12-12.13,42.32-12.83,40.2-19.54,65.5,0,0-1.34,5.06-13.08,53.81a20.59,20.59,0,0,0-9.2-3.64,23.67,23.67,0,0,0-7.54.44c-2.7.44-7.88,1.32-10.88,3.2Z" transform="translate(-125.76 -328.63)"/><path class="cls-10" d="M327.43,702.52l-70.5,0q5.09,7,10.22,14.54,4.06,6,7.8,11.82l52.47.29,52.79-.29c2.5-3.89,5.42-7.83,8.12-11.82,3.42-5,6.62-9.88,10-14.54Z" transform="translate(-125.76 -328.63)"/></g></svg>