<svg id="BG_night" xmlns="http://www.w3.org/2000/svg" xmlns:xlink="http://www.w3.org/1999/xlink" viewBox="0 0 1920 1080"><defs><style>.cls-1{fill:none;}.cls-2{clip-path:url(#clip-path);}.cls-3{fill:#1a237e;}.cls-4{fill:#283593;}.cls-5{fill:#3949ab;}.cls-6{fill:#5c6bc0;}</style><clipPath id="clip-path"><rect class="cls-1" width="1920" height="1080"/></clipPath></defs><title>Artboard 1</title><g class="cls-2"><path class="cls-3" d="M-7.5-308.5C1043.28,26,1561.34-55.4,1840.5-206.5c65.49-35.45,233.61-137.4,375-75,180.88,79.83,282.28,412.88,183,627-160.78,346.76-822.25,326.34-1287,312-488.94-15.09-1044.68-32.24-1197-372C-177.42,80.47-85.37-159.39-7.5-308.5Z"/><path class="cls-4" d="M2418.52,40.5c-153.68-109.13-630.3,541.26-1241.43,436-113-19.47-314.63-79.25-504.14-157-304.15-124.79-397.73-222.25-551.4-189-177.13,38.33-274,215.68-315.08,291-98.72,180.81-137.34,437.49-53.56,606,232.94,468.56,1585.28,603.57,2271.76-6C2416.16,673.87,2541.67,128,2418.52,40.5Z"/><path class="cls-5" d="M-125.5,320.5C20.82,211.37,429.23,689.8,1015,609c377-52,834-250,1117-174,167,44.86,190.34,191.18,229.5,266.5,94,180.81,130.76,437.49,51,606-221.79,468.56-1509.38,603.57-2163-6C-123.25,953.87-242.76,408-125.5,320.5Z"/><path class="cls-6" d="M-144.5,374.5c146.32-109.13,606.69,572.64,1182,436C1688,656,2007.69,616.75,2154,650c168.65,38.33,149.34,30.18,188.5,105.5,94,180.81,130.76,437.49,51,606-221.79,468.56-1509.38,603.57-2163-6C-142.25,1007.87-261.76,462-144.5,374.5Z"/><path class="cls-5" d="M-191.5,823.5C-45.18,714.37,433.13,1129.26,1015,1024c107.62-19.47,834.19-143.75,980.5-110.5,168.65,38.33,260.84,215.68,300,291,94,180.81,130.76,437.49,51,606-221.79,468.56-1509.38,603.57-2163-6C-189.25,1456.87-308.76,911-191.5,823.5Z"/><path class="cls-5" d="M1036,929s777-294,929-229.84c166.41,70.25,179,166.92,179,166.92s-73.24-104-250-105.73C1556,757,1036,929,1036,929Z"/><path class="cls-5" d="M990.63,165.21s768.66-556.48,960.11-488.12S2189.42-185.4,2189.42-185.4s-112.2-115.19-301-52.37S990.63,165.21,990.63,165.21Z"/><path class="cls-5" d="M1149.88,214.53s1341.8-531,1598.2-358.26,300,292.35,300,292.35S2926.06-63.29,2624.3-41.7,1149.88,214.53,1149.88,214.53Z"/></g></svg>